<?xml version="1.0" standalone="no"?>
<!DOCTYPE svg PUBLIC "-//W3C//DTD SVG 20010904//EN"
 "http://www.w3.org/TR/2001/REC-SVG-20010904/DTD/svg10.dtd">
<svg version="1.0" xmlns="http://www.w3.org/2000/svg"
 width="300.000000pt" height="300.000000pt" viewBox="0 0 300.000000 300.000000"
 preserveAspectRatio="xMidYMid meet">
<metadata>
Created by potrace 1.10, written by Peter Selinger 2001-2011
</metadata>
<g transform="translate(0.000000,300.000000) scale(0.100000,-0.100000)"
fill="#000000" stroke="none">
<path d="M967 1660 c-101 -26 -192 -104 -226 -196 -26 -69 -28 -170 -4 -238
26 -71 98 -147 174 -181 55 -24 70 -27 143 -23 135 8 235 77 285 199 23 54 25
57 73 68 65 15 86 14 139 -4 39 -14 46 -21 61 -63 68 -189 262 -279 440 -203
200 85 257 348 112 510 -114 127 -304 147 -437 46 -59 -45 -104 -116 -119
-185 l-12 -58 -29 10 c-16 6 -69 8 -118 6 l-89 -5 0 32 c0 75 -61 182 -131
231 -72 49 -185 73 -262 54z m24 -50 c38 -21 13 -70 -35 -70 -8 0 -20 9 -26
20 -8 15 -6 24 10 40 23 23 25 23 51 10z m918 -24 c21 -26 -4 -58 -42 -54 -37
3 -47 27 -22 52 20 20 49 21 64 2z m-1003 -51 c4 -9 -10 -39 -32 -71 l-39 -57
1 -98 c1 -97 0 -99 -22 -99 -13 0 -28 9 -34 21 -21 37 -23 122 -7 180 27 92
115 173 133 124z m902 -17 c2 -9 -12 -37 -32 -62 -40 -53 -59 -127 -50 -197 6
-41 4 -50 -11 -55 -12 -5 -24 0 -37 15 -23 30 -24 129 -2 195 29 86 121 159
132 104z"/>
</g>
</svg>
